<svg xmlns="http://www.w3.org/2000/svg" xmlns:xlink="http://www.w3.org/1999/xlink" width="400" height="400" viewBox="0 0 400 400"><g data-name="icon" fill="#f9f9f9" data="id:7539239" transform="translate(39.996807829423936, 40) scale(3.200031982741527)">
    
 <path d="m17.914 0c-9.8672 0-17.902 8.0352-17.902 17.902v64.195c0 9.8672 8.0352 17.902 17.902 17.902h64.18c9.8672 0 17.895-8.0352 17.895-17.902v-64.195c0-9.8672-8.0273-17.902-17.895-17.902zm0 6.25h64.18c6.5117 0 11.668 5.1367 11.668 11.652v64.195c0 6.5156-5.1562 11.652-11.668 11.652h-64.18c-6.5117 0-11.676-5.1367-11.676-11.652v-64.195c0-6.5117 5.1641-11.652 11.676-11.652zm19.379 12.043c-0.83203 0-1.6289 0.33203-2.2148 0.92188l-7.4766 7.4766-4.1016-4.1094c-1.2188-1.2109-3.1875-1.2109-4.4062 0-0.58984 0.58594-0.92188 1.3828-0.92188 2.2148 0 0.82812 0.33203 1.625 0.92188 2.2109l6.293 6.3008h-0.003907c0.58984 0.58594 1.3867 0.91797 2.2188 0.91797 0.83203 0 1.6289-0.33203 2.2148-0.91797l9.6914-9.6875c1.2109-1.2188 1.2109-3.1875 0-4.4062-0.58594-0.58984-1.3828-0.92188-2.2148-0.92188zm13.195 4.8477v-0.003906c-0.82812 0-1.625 0.32422-2.2148 0.91016-0.58594 0.58203-0.91797 1.375-0.92188 2.2031-0.003906 0.83594 0.32422 1.6328 0.91406 2.2227s1.3906 0.91797 2.2227 0.91406h28.234c0.82812 0 1.6211-0.33203 2.207-0.92188 0.58203-0.58984 0.91016-1.3867 0.90625-2.2148-0.007813-1.7148-1.3945-3.1055-3.1133-3.1133zm-13.195 18.891v-0.003906c-0.83203 0-1.6289 0.33203-2.2148 0.92188l-7.4766 7.4766-4.1016-4.1094v0.003906c-1.2188-1.2109-3.1875-1.2109-4.4062 0-1.2148 1.2188-1.2148 3.1875 0 4.4062l6.293 6.3164h-0.003907c0.58984 0.58984 1.3867 0.92188 2.2188 0.92188 0.83203 0 1.6289-0.33203 2.2148-0.92188l9.6914-9.6875c1.2109-1.2188 1.2109-3.1875 0-4.4062-0.58594-0.58984-1.3828-0.92188-2.2148-0.92188zm13.195 4.8477v-0.003906c-0.82812-0.003906-1.625 0.32422-2.2148 0.90625-0.58594 0.58594-0.91797 1.3789-0.92188 2.207-0.003906 0.83203 0.32422 1.6328 0.91406 2.2227 0.58984 0.58594 1.3906 0.91797 2.2227 0.91406h28.234c0.82812-0.003906 1.6211-0.33594 2.207-0.92578 0.58203-0.58594 0.91016-1.3828 0.90625-2.2109-0.007813-1.7188-1.3945-3.1055-3.1133-3.1133zm-13.195 18.891v-0.003906c-0.83203 0-1.6289 0.33203-2.2148 0.92188l-7.4766 7.4766-4.1016-4.1094c-1.2188-1.2109-3.1875-1.2109-4.4062 0-1.2148 1.2188-1.2148 3.1875 0 4.4102l6.293 6.3242-0.003907-0.003906c0.58984 0.58984 1.3867 0.92188 2.2188 0.92188 0.83203 0 1.6289-0.33203 2.2148-0.92188l9.6914-9.6914c1.2109-1.2188 1.2109-3.1875 0-4.4062-0.58594-0.58984-1.3828-0.92188-2.2148-0.92188zm13.195 4.8477v-0.003907c-0.82812-0.003906-1.625 0.32031-2.2148 0.90625-0.58594 0.58203-0.91797 1.375-0.92188 2.2031-0.003906 0.83594 0.32422 1.6328 0.91406 2.2227 0.58984 0.58984 1.3906 0.91797 2.2227 0.91797h28.234c0.82812-0.003906 1.6211-0.33594 2.207-0.92578 0.58203-0.58984 0.91016-1.3828 0.90625-2.2148-0.007813-1.7148-1.3945-3.1055-3.1133-3.1094z"/>

    </g></svg>